HIERARCHY
ROOT Hips
{
	OFFSET 0.00000 0.00000 0.00000
	CHANNELS 6 Xposition Yposition Zposition Zrotation Yrotation Xrotation 
	JOINT LHipJoint
	{
		OFFSET 0 0 0
		CHANNELS 3 Zrotation Yrotation Xrotation
		JOINT LeftUpLeg
		{
			OFFSET 1.62329 -1.80800 0.67318
			CHANNELS 3 Zrotation Yrotation Xrotation
			JOINT LeftLeg
			{
				OFFSET 2.57139 -7.06484 0.00000
				CHANNELS 3 Zrotation Yrotation Xrotation
				JOINT LeftFoot
				{
					OFFSET 2.52017 -6.92413 0.00000
					CHANNELS 3 Zrotation Yrotation Xrotation
					JOINT LeftToeBase
					{
						OFFSET 0.23295 -0.64001 2.10214
						CHANNELS 3 Zrotation Yrotation Xrotation
						End Site
						{
							OFFSET 0.00000 -0.00000 1.10139
						}
					}
				}
			}
		}
	}
	JOINT RHipJoint
	{
		OFFSET 0 0 0
		CHANNELS 3 Zrotation Yrotation Xrotation
		JOINT RightUpLeg
		{
			OFFSET -1.48061 -1.80800 0.67318
			CHANNELS 3 Zrotation Yrotation Xrotation
			JOINT RightLeg
			{
				OFFSET -2.63258 -7.23296 0.00000
				CHANNELS 3 Zrotation Yrotation Xrotation
				JOINT RightFoot
				{
					OFFSET -2.54779 -7.00000 0.00000
					CHANNELS 3 Zrotation Yrotation Xrotation
					JOINT RightToeBase
					{
						OFFSET -0.23067 -0.63376 2.12161
						CHANNELS 3 Zrotation Yrotation Xrotation
						End Site
						{
							OFFSET -0.00000 -0.00000 1.11000
						}
					}
				}
			}
		}
	}
	JOINT LowerBack
	{
		OFFSET 0 0 0
		CHANNELS 3 Zrotation Yrotation Xrotation
		JOINT Spine
		{
			OFFSET -0.02108 2.07573 -0.16981
			CHANNELS 3 Zrotation Yrotation Xrotation
			JOINT Spine1
			{
				OFFSET 0.05070 2.08439 -0.03141
				CHANNELS 3 Zrotation Yrotation Xrotation
				JOINT Neck
				{
					OFFSET 0 0 0
					CHANNELS 3 Zrotation Yrotation Xrotation
					JOINT Neck1
					{
						OFFSET -0.10731 1.60408 0.31370
						CHANNELS 3 Zrotation Yrotation Xrotation
						JOINT Head
						{
							OFFSET 0.08411 1.65679 -0.30822
							CHANNELS 3 Zrotation Yrotation Xrotation
							End Site
							{
								OFFSET 0.03911 1.69149 -0.14146
							}
						}
					}
				}
				JOINT LeftShoulder
				{
					OFFSET 0 0 0
					CHANNELS 3 Zrotation Yrotation Xrotation
					JOINT LeftArm
					{
						OFFSET 3.52315 0.73219 -0.54694
						CHANNELS 3 Zrotation Yrotation Xrotation
						JOINT LeftForeArm
						{
							OFFSET 5.32462 -0.00000 -0.00000
							CHANNELS 3 Zrotation Yrotation Xrotation
							JOINT LeftHand
							{
								OFFSET 3.48402 -0.00000 -0.00000
								CHANNELS 3 Zrotation Yrotation Xrotation
								JOINT LeftFingerBase
								{
									OFFSET 0 0 0
									CHANNELS 3 Zrotation Yrotation Xrotation
									JOINT LeftHandIndex1
									{
										OFFSET 0.57248 -0.00000 -0.00000
										CHANNELS 3 Zrotation Yrotation Xrotation
										End Site
										{
											OFFSET 0.46154 -0.00000 -0.00000
										}
									}
								}
								JOINT LThumb
								{
									OFFSET 0 0 0
									CHANNELS 3 Zrotation Yrotation Xrotation
									End Site
									{
										OFFSET 0.46859 -0.00000 0.46859
									}
								}
							}
						}
					}
				}
				JOINT RightShoulder
				{
					OFFSET 0 0 0
					CHANNELS 3 Zrotation Yrotation Xrotation
					JOINT RightArm
					{
						OFFSET -3.41766 0.93592 -0.10019
						CHANNELS 3 Zrotation Yrotation Xrotation
						JOINT RightForeArm
						{
							OFFSET -5.33589 -0.00000 -0.00000
							CHANNELS 3 Zrotation Yrotation Xrotation
							JOINT RightHand
							{
								OFFSET -3.64134 -0.00000 -0.00000
								CHANNELS 3 Zrotation Yrotation Xrotation
								JOINT RightFingerBase
								{
									OFFSET 0 0 0
									CHANNELS 3 Zrotation Yrotation Xrotation
									JOINT RightHandIndex1
									{
										OFFSET -0.73481 -0.00000 -0.00000
										CHANNELS 3 Zrotation Yrotation Xrotation
										End Site
										{
											OFFSET -0.59242 -0.00000 -0.00000
										}
									}
								}
								JOINT RThumb
								{
									OFFSET 0 0 0
									CHANNELS 3 Zrotation Yrotation Xrotation
									End Site
									{
										OFFSET -0.60147 -0.00000 0.60147
									}
								}
							}
						}
					}
				}
			}
		}
	}
}
MOTION
Frames: 16
Frame Time: .0083333
-0.1374 17.9308 -0.4038 2.5887 -10.3542 2.7890 0.0000 0.0000 0.0000 -23.2716 -0.9218 3.7745 0.2027 2.8987 7.9969 0.2947 2.5750 -11.5310 0.4478 -4.2931 -11.9029 0.0000 0.0000 0.0000 13.9115 10.8452 -4.4526 -1.9679 -8.7988 25.1681 -1.0109 3.6180 -18.1352 -0.0512 -1.4604 4.0164 -4.7031 -1.7571 -0.8727 2.9877 -2.3220 -1.9357 5.7357 -1.0829 -1.1966 -8.1876 -0.9349 -33.1565 6.5581 1.1385 1.9849 3.6350 1.0184 5.4367 -0.0000 0.0000 0.0000 16.4172 -60.9373 -45.7957 108.0435 -58.7334 -75.5597 -0.0000 -0.0000 17.8158 49.2017 14.0915 15.7527 -7.1250 0.0000 -0.0000 21.8837 49.6837 2.6399 -0.0000 0.0000 0.0000 81.7843 -3.6158 23.9168 -15.7151 25.1329 -3.5241 0.0000 0.0000 20.2834 -18.3927 7.9860 -2.6450 7.1250 -0.0000 -0.0000 6.1279 -21.5885 3.4628
-0.1386 17.9307 -0.4030 2.6182 -10.3744 2.7906 0.0000 0.0000 0.0000 -23.3011 -0.9138 3.7414 0.2056 2.9195 8.0548 0.2983 2.5765 -11.5930 0.4616 -4.3582 -12.0868 0.0000 0.0000 0.0000 13.8833 10.8684 -4.4494 -1.9684 -8.8000 25.1717 -1.0104 3.6353 -18.1284 -0.0526 -1.4800 4.0705 -4.7201 -1.7476 -0.8898 2.9642 -2.3087 -1.9134 5.7197 -1.0776 -1.1660 -8.2476 -0.9624 -33.1732 6.6347 1.1207 1.9059 3.6676 1.0170 5.4137 -0.0000 -0.0000 0.0000 16.5722 -60.9124 -45.9514 107.9940 -58.7405 -75.5173 -0.0000 -0.0000 17.8113 49.3891 13.9685 15.7232 -7.1250 0.0000 -0.0000 22.0479 49.5632 2.5936 -0.0000 -0.0000 0.0000 81.8103 -3.5860 23.8855 -15.7392 25.1658 -3.5343 0.0000 0.0000 20.3372 -18.4105 8.1768 -2.7105 7.1250 -0.0000 -0.0000 6.1131 -21.3882 3.4822
-0.1392 17.9309 -0.4010 2.6146 -10.4007 2.7996 0.0000 0.0000 0.0000 -23.2966 -0.8983 3.7074 0.2085 2.9399 8.1115 0.3018 2.5695 -11.6454 0.4550 -4.3274 -11.9995 0.0000 0.0000 0.0000 13.8846 10.8810 -4.4505 -1.9680 -8.7990 25.1687 -1.0053 3.6138 -18.0838 -0.0528 -1.4823 4.0770 -4.6978 -1.7268 -0.9080 2.9308 -2.2805 -1.9240 5.6718 -1.0634 -1.1726 -8.1806 -0.9686 -33.1098 6.5925 1.0883 1.8374 3.6369 0.9980 5.3859 -0.0000 -0.0000 0.0000 16.6387 -60.9312 -45.9396 107.9414 -58.7481 -75.4724 -0.0000 -0.0000 17.5927 49.5535 13.6379 15.4610 -7.1250 0.0000 -0.0000 22.1113 49.1548 2.3708 -0.0000 -0.0000 0.0000 81.8609 -3.6175 23.8546 -15.7672 25.2040 -3.5462 0.0000 0.0000 20.4189 -18.2417 8.0905 -2.6558 7.1250 -0.0000 -0.0000 6.2363 -21.4873 3.5391
-0.1404 17.9307 -0.3995 2.6243 -10.4039 2.7681 0.0000 0.0000 0.0000 -23.3061 -0.8915 3.7115 0.2118 2.9628 8.1752 0.3050 2.5593 -11.6931 0.4691 -4.3928 -12.1845 0.0000 0.0000 0.0000 13.8887 10.8918 -4.3991 -1.9662 -8.7954 25.1574 -1.0081 3.6064 -18.1114 -0.0514 -1.4629 4.0235 -4.7203 -1.7286 -0.8610 2.9156 -2.2850 -1.9405 5.6706 -1.0637 -1.2152 -8.1059 -0.9688 -33.1339 6.5371 1.0656 1.8979 3.6044 0.9827 5.4110 -0.0000 0.0000 0.0000 16.6457 -60.9021 -45.8823 107.9327 -58.7493 -75.4649 -0.0000 -0.0000 17.4028 49.6281 13.5991 15.4587 -7.1250 0.0000 -0.0000 22.1792 49.1201 2.3590 -0.0000 0.0000 0.0000 81.8604 -3.6644 23.8490 -15.7851 25.2284 -3.5539 0.0000 0.0000 20.4501 -17.9635 8.0965 -2.6145 7.1250 -0.0000 -0.0000 6.4377 -21.4955 3.6536
-0.1412 17.9320 -0.3980 2.5726 -10.3902 2.8031 0.0000 0.0000 0.0000 -23.2437 -0.9213 3.6666 0.2143 2.9803 8.2239 0.3072 2.5460 -11.7201 0.4594 -4.3478 -12.0572 0.0000 0.0000 0.0000 13.9483 10.9056 -4.4087 -1.9641 -8.7909 25.1435 -1.0106 3.5715 -18.1396 -0.0531 -1.4875 4.0913 -4.6565 -1.7379 -0.8911 2.9220 -2.2961 -1.9458 5.6400 -1.0703 -1.2043 -8.0923 -0.9735 -33.3121 6.5538 1.0611 2.0913 3.6123 0.9831 5.4979 -0.0000 0.0000 0.0000 16.7457 -60.8738 -45.9826 107.9652 -58.7447 -75.4927 -0.0000 -0.0000 17.3456 49.5295 13.5719 15.3786 -7.1250 0.0000 -0.0000 22.0613 49.0592 2.3109 -0.0000 0.0000 0.0000 81.8593 -3.6711 23.8253 -15.8009 25.2499 -3.5606 0.0000 0.0000 20.4518 -17.8950 8.0110 -2.5765 7.1250 -0.0000 -0.0000 6.4884 -21.5881 3.6691
-0.1429 17.9333 -0.3965 2.5151 -10.3964 2.8434 0.0000 0.0000 0.0000 -23.1751 -0.9224 3.6423 0.2139 2.9775 8.2162 0.3055 2.5493 -11.6955 0.4501 -4.3042 -11.9342 0.0000 0.0000 0.0000 14.0189 10.9527 -4.4179 -1.9631 -8.7887 25.1365 -1.0113 3.5253 -18.1528 -0.0540 -1.4996 4.1247 -4.5951 -1.7337 -0.9247 2.9213 -2.2893 -1.9660 5.6036 -1.0671 -1.2094 -8.1229 -0.9723 -33.2197 6.6071 1.0637 2.0058 3.6334 0.9885 5.4580 0.0000 0.0000 0.0000 16.7815 -60.8586 -46.0238 107.9853 -58.7418 -75.5099 -0.0000 -0.0000 17.3504 49.3555 13.3910 15.0979 -7.1250 0.0000 -0.0000 21.8076 48.7718 2.1215 0.0000 0.0000 0.0000 81.9031 -3.6735 23.7125 -15.7679 25.2049 -3.5465 0.0000 0.0000 20.5957 -17.9860 8.0385 -2.5993 7.1250 -0.0000 -0.0000 6.4221 -21.5548 3.6360
-0.1437 17.9329 -0.3942 2.5136 -10.4318 2.8579 0.0000 0.0000 0.0000 -23.1779 -0.8846 3.6432 0.2123 2.9666 8.1858 0.3028 2.5773 -11.6676 0.4628 -4.3638 -12.1025 0.0000 0.0000 0.0000 14.0235 10.9818 -4.4244 -1.9616 -8.7856 25.1270 -1.0076 3.4946 -18.1224 -0.0529 -1.4841 4.0820 -4.5919 -1.7303 -0.9390 2.9166 -2.2844 -1.9896 5.5970 -1.0636 -1.2266 -8.0773 -0.9547 -33.0655 6.5347 1.0688 1.8608 3.5982 0.9838 5.3903 0.0000 -0.0000 0.0000 16.7555 -60.8399 -46.0581 107.9507 -58.7467 -75.4803 -0.0000 -0.0000 17.5894 49.2265 13.4406 15.0846 -7.1250 0.0000 -0.0000 21.6847 48.8087 2.1289 0.0000 -0.0000 0.0000 81.8747 -3.7050 23.8256 -15.7853 25.2286 -3.5539 0.0000 0.0000 20.5298 -17.9884 8.0464 -2.6022 7.1250 -0.0000 -0.0000 6.4203 -21.5465 3.6362
-0.1435 17.9324 -0.3902 2.5589 -10.4285 2.8546 0.0000 0.0000 0.0000 -23.2432 -0.8752 3.6819 0.2097 2.9487 8.1358 0.2989 2.6040 -11.6197 0.4818 -4.4509 -12.3489 0.0000 0.0000 0.0000 13.9610 10.9225 -4.4336 -1.9615 -8.7853 25.1260 -1.0072 3.5499 -18.1113 -0.0507 -1.4527 3.9953 -4.6325 -1.7342 -0.9503 2.9050 -2.2894 -2.0134 5.6080 -1.0646 -1.2433 -8.0345 -0.9441 -33.0830 6.4742 1.0723 1.9308 3.5723 0.9801 5.4154 0.0000 0.0000 0.0000 16.7179 -60.8561 -46.0808 107.9009 -58.7539 -75.4378 -0.0000 -0.0000 17.7736 49.1421 13.4006 14.9999 -7.1250 0.0000 -0.0000 21.5792 48.7346 2.0767 0.0000 0.0000 0.0000 81.8468 -3.7653 23.8747 -15.8429 25.3071 -3.5785 0.0000 0.0000 20.5120 -17.8245 8.0067 -2.5644 7.1250 -0.0000 -0.0000 6.5396 -21.5961 3.6972
-0.1437 17.9319 -0.3861 2.5977 -10.4189 2.8428 0.0000 0.0000 0.0000 -23.2956 -0.8606 3.7516 0.2062 2.9236 8.0662 0.2989 2.5912 -11.6113 0.4754 -4.4219 -12.2666 0.0000 0.0000 0.0000 13.9121 10.8737 -4.4262 -1.9632 -8.7889 25.1372 -1.0080 3.5946 -18.1119 -0.0493 -1.4335 3.9425 -4.6666 -1.7322 -0.9703 2.8801 -2.2861 -2.0142 5.6007 -1.0629 -1.2331 -8.0268 -0.9516 -33.0990 6.5100 1.0566 1.9419 3.5818 0.9762 5.4226 -0.0000 0.0000 0.0000 16.7217 -60.8987 -46.0856 107.8981 -58.7543 -75.4354 -0.0000 -0.0000 17.8123 49.0928 13.4527 15.0295 -7.1250 0.0000 -0.0000 21.5437 48.7938 2.1056 -0.0000 0.0000 0.0000 81.8817 -3.7636 23.7674 -15.8614 25.3324 -3.5865 0.0000 0.0000 20.6044 -17.8476 8.0028 -2.5667 7.1250 -0.0000 -0.0000 6.5229 -21.5990 3.6872
-0.1443 17.9309 -0.3813 2.6486 -10.4257 2.8272 0.0000 0.0000 0.0000 -23.3523 -0.8341 3.8089 0.2024 2.8967 7.9912 0.2982 2.5851 -11.5967 0.4873 -4.4762 -12.4203 0.0000 0.0000 0.0000 13.8526 10.8644 -4.4056 -1.9644 -8.7915 25.1453 -1.0110 3.6591 -18.1304 -0.0557 -1.5228 4.1886 -4.7122 -1.6948 -0.9910 2.8360 -2.2355 -1.9961 5.5798 -1.0383 -1.2096 -7.8678 -0.9644 -33.2441 6.3465 1.0055 2.0427 3.4976 0.9396 5.4780 0.0000 -0.0000 0.0000 16.8849 -61.0026 -46.2403 107.9503 -58.7468 -75.4800 -0.0000 -0.0000 17.7667 48.9891 13.5406 15.0688 -7.1250 0.0000 -0.0000 21.4609 48.8884 2.1487 0.0000 -0.0000 0.0000 81.9332 -3.7429 23.6113 -15.8711 25.3455 -3.5906 0.0000 0.0000 20.6691 -17.9570 8.0023 -2.5833 7.1250 -0.0000 -0.0000 6.4436 -21.5939 3.6426
-0.1451 17.9317 -0.3787 2.6861 -10.4650 2.8232 0.0000 0.0000 0.0000 -23.3936 -0.7826 3.8394 0.1990 2.8729 7.9251 0.2964 2.5959 -11.5736 0.4772 -4.4302 -12.2903 0.0000 0.0000 0.0000 13.8084 10.8748 -4.4142 -1.9665 -8.7958 25.1588 -1.0088 3.6695 -18.1089 -0.0556 -1.5215 4.1850 -4.7485 -1.6554 -0.9975 2.8014 -2.1830 -1.9966 5.5645 -1.0115 -1.2134 -7.7534 -0.9792 -33.3830 6.2198 0.9631 2.2006 3.4345 0.9095 5.5508 -0.0000 -0.0000 0.0000 17.0142 -61.0730 -46.3623 107.9310 -58.7496 -75.4635 -0.0000 -0.0000 17.6950 49.0140 13.4354 14.9717 -7.1250 0.0000 -0.0000 21.4524 48.7519 2.0729 -0.0000 -0.0000 0.0000 81.9642 -3.6959 23.5204 -15.8137 25.2674 -3.5661 0.0000 0.0000 20.7076 -18.0573 8.0074 -2.6004 7.1250 -0.0000 -0.0000 6.3708 -21.5835 3.6024
-0.1453 17.9330 -0.3781 2.6670 -10.4727 2.8308 0.0000 0.0000 0.0000 -23.3794 -0.7695 3.8493 0.1984 2.8682 7.9120 0.2961 2.6284 -11.5881 0.4696 -4.3952 -12.1912 0.0000 0.0000 0.0000 13.8277 10.8669 -4.4286 -1.9678 -8.7988 25.1678 -1.0067 3.6707 -18.0888 -0.0564 -1.5324 4.2151 -4.7325 -1.6596 -0.9888 2.8058 -2.1890 -2.0150 5.5607 -1.0136 -1.2369 -7.8968 -0.9850 -33.2643 6.4218 0.9817 2.1337 3.5263 0.9346 5.5128 0.0000 0.0000 0.0000 16.9994 -61.0641 -46.4017 107.8585 -58.7600 -75.4015 -0.0000 -0.0000 17.9797 49.0303 13.6585 15.2126 -7.1250 0.0000 -0.0000 21.5458 49.0576 2.2512 0.0000 0.0000 0.0000 81.9374 -3.6770 23.5491 -15.7741 25.2134 -3.5492 0.0000 0.0000 20.7212 -18.1849 8.0927 -2.6477 7.1250 -0.0000 -0.0000 6.2773 -21.4879 3.5626
-0.1453 17.9315 -0.3760 2.7008 -10.4736 2.8149 0.0000 0.0000 0.0000 -23.4251 -0.7613 3.8695 0.2003 2.8816 7.9494 0.2959 2.6506 -11.5992 0.5031 -4.5469 -12.6205 0.0000 0.0000 0.0000 13.7926 10.8451 -4.4349 -1.9696 -8.8024 25.1791 -1.0057 3.6785 -18.0787 -0.0547 -1.5097 4.1524 -4.7524 -1.6601 -0.9991 2.7779 -2.1894 -2.0076 5.5423 -1.0142 -1.2238 -7.9704 -0.9864 -33.1836 6.5465 0.9906 2.0410 3.5795 0.9494 5.4716 0.0000 -0.0000 0.0000 17.0539 -61.0810 -46.4395 107.8576 -58.7601 -75.4008 -0.0000 -0.0000 18.0882 49.0303 14.0355 15.6045 -7.1250 0.0000 -0.0000 21.6746 49.5667 2.5477 0.0000 -0.0000 0.0000 81.9406 -3.6883 23.6372 -15.8137 25.2674 -3.5661 0.0000 0.0000 20.6112 -18.4097 8.0123 -2.6563 7.1250 -0.0000 -0.0000 6.1153 -21.5601 3.4595
-0.1456 17.9312 -0.3753 2.6768 -10.5086 2.8084 0.0000 0.0000 0.0000 -23.4044 -0.7184 3.8784 0.2019 2.8932 7.9816 0.2946 2.6593 -11.5828 0.5465 -4.7360 -13.1571 0.0000 0.0000 0.0000 13.8223 10.8776 -4.4284 -1.9715 -8.8065 25.1920 -1.0083 3.6795 -18.1026 -0.0508 -1.4549 4.0013 -4.7387 -1.6713 -0.9916 2.7922 -2.2045 -2.0062 5.5495 -1.0219 -1.2245 -7.9009 -0.9529 -33.1882 6.4481 1.0178 2.0411 3.5385 0.9540 5.4701 -0.0000 0.0000 0.0000 16.9740 -61.0105 -46.3156 107.8526 -58.7608 -75.3965 -0.0000 -0.0000 17.7141 49.0391 13.8563 15.4230 -7.1250 0.0000 -0.0000 21.6228 49.3270 2.4088 -0.0000 0.0000 0.0000 81.9167 -3.6667 23.6843 -15.8106 25.2632 -3.5648 0.0000 0.0000 20.6698 -18.4002 7.9998 -2.6507 7.1250 -0.0000 -0.0000 6.1224 -21.5737 3.4617
-0.1468 17.9309 -0.3757 2.6002 -10.5373 2.8139 0.0000 0.0000 0.0000 -23.3137 -0.6853 3.8739 0.2023 2.8963 7.9902 0.2923 2.6832 -11.5599 0.5482 -4.7434 -13.1781 0.0000 0.0000 0.0000 13.9129 10.9026 -4.4288 -1.9741 -8.8120 25.2090 -1.0082 3.6852 -18.1009 -0.0432 -1.3410 3.6876 -4.6909 -1.6817 -0.9781 2.8331 -2.2186 -2.0121 5.5656 -1.0289 -1.2363 -7.8423 -0.9162 -33.1825 6.3208 1.0560 2.0416 3.4904 0.9610 5.4664 0.0000 0.0000 0.0000 16.7960 -60.9467 -46.1405 107.9336 -58.7492 -75.4657 -0.0000 -0.0000 17.5956 49.0126 13.6507 15.1955 -7.1250 0.0000 -0.0000 21.5238 49.0428 2.2405 0.0000 0.0000 0.0000 81.8612 -3.6269 23.7583 -15.7709 25.2091 -3.5478 0.0000 0.0000 20.7142 -18.4149 8.1122 -2.6899 7.1250 -0.0000 -0.0000 6.1105 -21.4554 3.4714
-0.1485 17.9302 -0.3746 2.6281 -10.5324 2.8270 0.0000 0.0000 0.0000 -23.3393 -0.7129 3.8182 0.2063 2.9245 8.0687 0.2955 2.6887 -11.6162 0.5591 -4.7896 -13.3095 0.0000 0.0000 0.0000 13.8899 10.8992 -4.4400 -1.9732 -8.8099 25.2025 -1.0080 3.6563 -18.1032 -0.0336 -1.1840 3.2553 -4.7299 -1.6866 -1.0271 2.8154 -2.2234 -1.9912 5.5671 -1.0329 -1.1860 -7.8425 -0.8986 -33.3141 6.3844 1.0782 2.1610 3.5184 0.9786 5.5212 -0.0000 0.0000 0.0000 16.8573 -60.9529 -46.2016 107.9650 -58.7447 -75.4926 -0.0000 -0.0000 17.7003 48.9513 13.9896 15.5157 -7.1250 0.0000 -0.0000 21.5718 49.4858 2.4900 -0.0000 0.0000 0.0000 81.8855 -3.5252 23.7315 -15.7417 25.1692 -3.5354 0.0000 0.0000 20.7375 -18.4889 8.1729 -2.7215 7.1250 -0.0000 -0.0000 6.0564 -21.3881 3.4496
